<?xml version="1.0" encoding="UTF-8" standalone="no"?>
<!DOCTYPE svg PUBLIC "-//W3C//DTD SVG 1.1//EN" "http://www.w3.org/Graphics/SVG/1.1/DTD/svg11.dtd">
<svg width="500.00" height="150.00" viewBox="0.00 0.00 500.00 150.00" xmlns="http://www.w3.org/2000/svg" xmlns:xlink="http://www.w3.org/1999/xlink" id="logo">
<g stroke-linecap="round">
<path d="M30.50,35.50 C30.50,35.50 30.50,115.50 30.50,115.50" fill="none" stroke="rgb(180, 166, 233)" stroke-width="10" stroke-opacity="1.00" stroke-linejoin="round"/>
<path d="M207.50,35.50 C207.50,35.50 207.50,115.50 207.50,115.50" fill="none" stroke="rgb(180, 166, 233)" stroke-width="10" stroke-opacity="1.00" stroke-linejoin="round"/>
<path d="M474.50,35.50 C474.50,35.50 474.50,116.50 474.50,116.50" fill="none" stroke="rgb(180, 166, 233)" stroke-width="10" stroke-opacity="1.00" stroke-linejoin="round"/>
<path d="M317.50,59.50 C316.36,60.39 313.54,62.57 311.85,63.87 C309.95,65.37 308.15,65.35 307.50,65.50 C307.26,65.55 299.09,70.91 295.76,73.12 C293.90,74.38 292.98,74.65 291.50,74.50" fill="none" stroke="rgb(180, 166, 233)" stroke-width="10" stroke-opacity="1.00" stroke-linejoin="round"/>
<path d="M180.50,60.50 C179.33,60.85 177.40,61.73 176.50,62.50 C175.82,63.09 130.94,117.21 130.50,117.50 C128.84,118.57 125.51,119.42 123.50,119.50" fill="none" stroke="rgb(180, 166, 233)" stroke-width="10" stroke-opacity="1.00" stroke-linejoin="round"/>
<path d="M132.50,62.50 C153.73,87.94 178.24,117.38 178.50,117.50 C179.10,117.78 181.10,117.56 182.58,118.38 C182.86,118.54 183.50,118.91 184.50,119.50" fill="none" stroke="rgb(180, 166, 233)" stroke-width="10" stroke-opacity="1.00" stroke-linejoin="round"/>
<path d="M112.50,89.50 C112.25,83.66 111.28,79.27 108.81,75.64 C106.66,72.62 100.15,65.86 99.50,65.50 C98.09,64.75 89.23,63.52 87.50,63.50 C85.70,63.49 76.46,65.58 73.50,67.50 C70.46,69.55 65.30,76.82 64.50,79.50 C63.80,81.96 64.80,89.59 64.22,92.20 C64.04,93.05 63.29,96.11 63.50,97.50 C64.04,100.64 68.62,106.96 71.98,109.67 C76.00,112.81 81.73,116.00 85.50,116.50 C89.28,116.93 95.15,115.52 100.84,113.54 C103.90,112.47 106.70,110.27 107.50,109.50" fill="none" stroke="rgb(180, 166, 233)" stroke-width="10" stroke-opacity="1.00" stroke-linejoin="round"/>
<path d="M290.50,63.50 C291.22,69.69 291.69,75.05 291.32,77.27 C290.37,82.70 290.47,112.10 290.50,116.50" fill="none" stroke="rgb(180, 166, 233)" stroke-width="10" stroke-opacity="1.00" stroke-linejoin="round"/>
<path d="M379.50,89.50 C379.25,83.66 378.28,79.27 375.81,75.64 C373.66,72.62 367.15,65.86 366.50,65.50 C365.09,64.75 356.23,63.52 354.50,63.50 C352.70,63.49 343.46,65.58 340.50,67.50 C337.46,69.55 332.30,76.82 331.50,79.50 C330.80,81.96 331.80,89.59 331.22,92.20 C331.04,93.05 330.29,96.11 330.50,97.50 C331.04,100.64 335.62,106.96 338.98,109.67 C343.00,112.81 348.73,116.00 352.50,116.50 C356.28,116.93 362.15,115.52 367.84,113.54 C370.90,112.47 373.70,110.27 374.50,109.50" fill="none" stroke="rgb(180, 166, 233)" stroke-width="10" stroke-opacity="1.00" stroke-linejoin="round"/>
<path d="M448.50,104.50 C446.16,106.25 439.99,110.77 436.50,112.50 C433.74,113.84 425.34,116.44 422.07,116.63 C418.41,116.78 411.84,114.53 408.88,112.23 C405.96,109.89 401.75,104.03 399.85,100.00 C398.86,97.85 397.50,94.01 397.17,92.24 C396.84,90.30 397.03,86.40 397.50,84.50 C398.35,81.40 402.28,75.54 405.93,71.84 C407.24,70.54 410.03,67.84 410.74,67.12 C412.60,65.26 417.90,63.92 418.64,63.77 C421.80,63.17 429.86,65.10 433.42,66.24 C437.17,67.49 443.58,73.25 445.30,73.87 C445.70,74.01 446.43,74.22 447.50,74.50" fill="none" stroke="rgb(180, 166, 233)" stroke-width="10" stroke-opacity="1.00" stroke-linejoin="round"/>
<path d="M20.50,64.50 C20.50,64.50 43.50,64.50 43.50,64.50" fill="none" stroke="rgb(180, 166, 233)" stroke-width="10" stroke-opacity="1.00" stroke-linejoin="round"/>
<path d="M197.50,64.50 C197.50,64.50 220.50,64.50 220.50,64.50" fill="none" stroke="rgb(180, 166, 233)" stroke-width="10" stroke-opacity="1.00" stroke-linejoin="round"/>
<path d="M450.50,64.50 C450.27,67.32 449.87,71.98 449.50,72.50 C448.96,73.27 447.99,73.70 447.50,74.50 C447.29,74.85 448.70,77.08 448.97,78.20 C449.95,82.20 448.70,98.29 448.52,101.81 C448.41,104.02 448.64,105.18 449.43,106.49 C450.73,108.61 450.70,112.23 450.50,116.50" fill="none" stroke="rgb(180, 166, 233)" stroke-width="10" stroke-opacity="1.00" stroke-linejoin="round"/>
<path d="M243.50,80.50 C243.50,80.50 263.50,80.50 263.50,80.50" fill="none" stroke="rgb(180, 166, 233)" stroke-width="10" stroke-opacity="1.00" stroke-linejoin="round"/>
<path d="M64.50,89.50 C64.50,89.50 112.50,89.50 112.50,89.50" fill="none" stroke="rgb(180, 166, 233)" stroke-width="10" stroke-opacity="1.00" stroke-linejoin="round"/>
<path d="M331.50,89.50 C331.50,89.50 379.50,89.50 379.50,89.50" fill="none" stroke="rgb(180, 166, 233)" stroke-width="10" stroke-opacity="1.00" stroke-linejoin="round"/>
</g>
</svg>
